<svg width="1090" height="195" viewBox="0 0 1090 195" fill="none" xmlns="http://www.w3.org/2000/svg">
<path d="M0.5 103.25C0.5 102.583 0.708333 101.875 1.125 101.125C1.54167 100.375 2.08333 99.6667 2.75 99C3.41667 98.3333 4.125 97.7917 4.875 97.375C5.625 96.9583 6.33333 96.75 7 96.75C7.16667 96.75 7.41667 96.75 7.75 96.75C8.16667 96.75 8.45833 96.7917 8.625 96.875C7.625 97.9583 7.04167 99.0417 6.875 100.125C6.79167 101.208 6.75 102.375 6.75 103.625C6.75 105.542 7.16667 107.125 8 108.375C8.91667 109.542 10.0417 110.5 11.375 111.25C12.7083 111.917 14.1667 112.375 15.75 112.625C17.4167 112.958 19 113.125 20.5 113.125C26.75 113.125 32.5 112.292 37.75 110.625C43 108.875 47.7917 106.542 52.125 103.625C56.5417 100.625 60.5417 97.125 64.125 93.125C67.7083 89.0417 71 84.6667 74 80C77.0833 75.25 79.875 70.3333 82.375 65.25C84.9583 60.1667 87.375 55.0417 89.625 49.875H89.25H89C88.9167 49.875 88.875 49.8333 88.875 49.75C86.375 49.75 83.9583 50.4583 81.625 51.875C79.2917 53.2083 76.9583 54.75 74.625 56.5C72.2917 58.1667 69.9167 59.7083 67.5 61.125C65.0833 62.4583 62.5833 63.125 60 63.125C60 62.4583 60.9583 61.2083 62.875 59.375C64.875 57.5417 67.375 55.4167 70.375 53C73.375 50.5833 76.5833 48.0417 80 45.375C83.5 42.7083 86.7083 40.2917 89.625 38.125C92.625 35.875 95.125 34.0417 97.125 32.625C99.125 31.125 100.125 30.375 100.125 30.375C101.708 30.375 102.833 31.0417 103.5 32.375C104.167 33.625 104.5 34.9167 104.5 36.25C104.5 36.5 104.458 36.9167 104.375 37.5C104.375 38.0833 104.333 38.4167 104.25 38.5C100.583 46.4167 97.5417 53 95.125 58.25C92.7083 63.5 90.75 67.7083 89.25 70.875C87.75 74.0417 86.625 76.4167 85.875 78C85.2083 79.5 84.75 80.5 84.5 81C84.3333 81.5 84.2917 81.7083 84.375 81.625C84.5417 81.4583 84.75 81.3333 85 81.25C85.8333 80.9167 87.4583 80.5 89.875 80C92.375 79.4167 95 78.8333 97.75 78.25C100.583 77.6667 103.208 77.1667 105.625 76.75C108.125 76.25 109.833 75.9167 110.75 75.75L112.25 74.25C115.917 66.5833 119.667 59 123.5 51.5C127.417 43.9167 131.25 36.3333 135 28.75C136.583 27.4167 137.625 27.125 138.125 27.875C138.625 28.5417 138.833 29.6667 138.75 31.25C138.75 32.8333 138.5 34.5417 138 36.375C137.5 38.125 137.042 39.4167 136.625 40.25L105.875 108.125C105.125 109.792 104.333 110.792 103.5 111.125C102.667 111.458 101.625 111.625 100.375 111.625C99.625 111.625 98.7917 111.583 97.875 111.5C96.9583 111.417 96.375 110.875 96.125 109.875C97.7083 108.458 99.1667 106.667 100.5 104.5C101.917 102.25 103.125 99.9583 104.125 97.625C105.125 95.2083 105.875 92.8333 106.375 90.5C106.958 88.0833 107.25 85.9583 107.25 84.125C107.083 84.125 106.833 84.0833 106.5 84C106.25 83.9167 106.042 83.9167 105.875 84C103.292 84.8333 100.542 85.5 97.625 86C94.7083 86.4167 91.7917 86.9167 88.875 87.5C85.9583 88 83.1667 88.7083 80.5 89.625C77.8333 90.5417 75.5 91.875 73.5 93.625C68.6667 97.7083 64.5 101.375 61 104.625C57.5 107.792 53.9167 110.5 50.25 112.75C46.5833 115 42.4583 116.708 37.875 117.875C33.2917 119.042 27.5833 119.625 20.75 119.625C18 119.625 15.4167 119.333 13 118.75C10.5833 118.25 8.41667 117.375 6.5 116.125C4.66667 114.875 3.20833 113.208 2.125 111.125C1.04167 109.042 0.5 106.417 0.5 103.25ZM130.625 105.5C129.208 102.333 128.583 99.25 128.75 96.25C128.917 93.1667 129.583 90.2917 130.75 87.625C132 84.875 133.583 82.4167 135.5 80.25C137.5 78 139.625 76.0833 141.875 74.5C144.125 72.8333 146.375 71.5833 148.625 70.75C150.958 69.9167 153 69.5833 154.75 69.75C156.5 69.8333 157.875 70.4583 158.875 71.625C159.875 72.7917 160.208 74.5833 159.875 77C159.875 80.25 158.833 83.0833 156.75 85.5C154.75 87.9167 152.5 90.0833 150 92C147.583 93.9167 145.333 95.6667 143.25 97.25C141.25 98.75 140.25 100.167 140.25 101.5C140.25 102.25 140.667 102.833 141.5 103.25C142.417 103.667 143.458 104 144.625 104.25C145.792 104.417 146.958 104.542 148.125 104.625C149.292 104.708 150.125 104.792 150.625 104.875C158.458 103.208 164.333 102.208 168.25 101.875C172.167 101.458 174.625 101.5 175.625 102C176.625 102.417 176.417 103.125 175 104.125C173.667 105.042 171.583 106.042 168.75 107.125C165.917 108.125 162.625 109.042 158.875 109.875C155.125 110.708 151.417 111.208 147.75 111.375C144.083 111.458 140.667 111.083 137.5 110.25C134.417 109.417 132.125 107.833 130.625 105.5ZM152.5 77C150.833 77 149.25 77.4583 147.75 78.375C146.25 79.2917 144.875 80.4583 143.625 81.875C142.458 83.2083 141.458 84.7083 140.625 86.375C139.792 87.9583 139.167 89.4583 138.75 90.875C138.917 90.9583 139.042 91 139.125 91H139.5C140.667 91 142 90.5 143.5 89.5C145 88.5 146.417 87.2917 147.75 85.875C149.083 84.375 150.208 82.8333 151.125 81.25C152.042 79.6667 152.5 78.25 152.5 77ZM174.125 103.875C174.125 102.708 174.25 101.708 174.5 100.875C174.75 99.9583 175.208 98.7917 175.875 97.375C176.458 96.5417 177.5 94.9583 179 92.625C180.583 90.2917 182.208 87.8333 183.875 85.25C185.625 82.6667 187.25 80.25 188.75 78C190.333 75.6667 191.417 74.0417 192 73.125C192.75 72.0417 193.333 71.4583 193.75 71.375C194.167 71.2917 194.958 71.25 196.125 71.25C196.875 71.25 197.667 71.2917 198.5 71.375C199.417 71.4583 200 72.0417 200.25 73.125C199.083 75.9583 197.5 78.6667 195.5 81.25C193.583 83.75 191.667 86.25 189.75 88.75C187.917 91.25 186.292 93.8333 184.875 96.5C183.458 99.0833 182.75 101.875 182.75 104.875C183.083 104.875 183.583 104.917 184.25 105C185 105.083 185.792 105.167 186.625 105.25C187.458 105.333 188.208 105.417 188.875 105.5C189.625 105.583 190.167 105.583 190.5 105.5C191 105.417 191.833 105.25 193 105C194.25 104.667 195.542 104.333 196.875 104C198.292 103.667 199.625 103.333 200.875 103C202.125 102.667 203 102.417 203.5 102.25C203.5 102.417 203.5 102.708 203.5 103.125C203.583 103.458 203.625 103.708 203.625 103.875C203.625 105.542 202.833 106.917 201.25 108C199.75 109.083 197.958 109.958 195.875 110.625C193.875 111.208 191.792 111.625 189.625 111.875C187.542 112.042 185.917 112.125 184.75 112.125C183.5 112.125 182.208 112 180.875 111.75C179.625 111.417 178.5 110.917 177.5 110.25C176.5 109.583 175.667 108.75 175 107.75C174.417 106.667 174.125 105.375 174.125 103.875ZM210.5 30.625C211.583 30.625 212.583 30.6667 213.5 30.75C214.417 30.8333 215.208 31.0417 215.875 31.375C216.542 31.7083 217.083 32.2083 217.5 32.875C217.917 33.5417 218.125 34.4583 218.125 35.625C218.125 36.125 218.125 36.6667 218.125 37.25C218.125 37.8333 218.042 38.4167 217.875 39C217.792 39.5 217.583 39.9583 217.25 40.375C216.917 40.7083 216.375 40.875 215.625 40.875C214.458 40.875 213.5 40.4583 212.75 39.625C212.083 38.7917 211.583 37.8333 211.25 36.75C210.917 35.5833 210.708 34.4167 210.625 33.25C210.542 32.0833 210.5 31.2083 210.5 30.625ZM223.875 94.25C222.875 95.5833 222.042 97.0833 221.375 98.75C220.708 100.417 219.958 102 219.125 103.5C218.292 105 217.292 106.25 216.125 107.25C214.958 108.25 213.417 108.75 211.5 108.75C209.917 108.75 208.833 108.5 208.25 108C207.667 107.417 207.375 106.292 207.375 104.625C207.375 102.625 207.917 100.417 209 98C210.167 95.5833 211.542 93.25 213.125 91C214.708 88.6667 216.333 86.5 218 84.5C219.667 82.5 221.042 80.875 222.125 79.625L245.25 29.625C245.833 28.2083 246.875 26.875 248.375 25.625C249.958 24.375 251.583 23.75 253.25 23.75V27.875L240 58.5V61.5C241.417 61.5 242.75 61.2917 244 60.875C245.25 60.375 246.5 59.8333 247.75 59.25C249 58.6667 250.292 58.1667 251.625 57.75C253.042 57.25 254.583 57 256.25 57C257.75 58 258.542 59.25 258.625 60.75C258.708 62.1667 258.333 63.75 257.5 65.5C256.667 67.1667 255.5 68.875 254 70.625C252.583 72.375 251.083 74.0833 249.5 75.75C247.917 77.3333 246.375 78.75 244.875 80C243.458 81.25 242.375 82.2083 241.625 82.875C240.375 83.875 239.208 84.5833 238.125 85C237.125 85.3333 236.25 85.6667 235.5 86C234.75 86.3333 234.167 86.8333 233.75 87.5C233.417 88.1667 233.25 89.2917 233.25 90.875C233.25 93.2083 233.875 95.125 235.125 96.625C236.375 98.0417 238 99.1667 240 100C242.083 100.833 244.375 101.417 246.875 101.75C249.458 102 252.042 102.125 254.625 102.125C257.208 102.125 259.667 102.042 262 101.875C264.333 101.625 266.333 101.375 268 101.125L269.5 102.625C268.583 103.875 267.167 105.083 265.25 106.25C263.417 107.333 261.375 108.333 259.125 109.25C256.958 110.083 254.792 110.792 252.625 111.375C250.458 111.875 248.667 112.125 247.25 112.125C244.583 112.125 242 111.708 239.5 110.875C237 109.958 234.708 108.708 232.625 107.125C230.542 105.542 228.708 103.667 227.125 101.5C225.625 99.25 224.542 96.8333 223.875 94.25ZM248.5 66.125C247.75 66.125 246.625 66.4167 245.125 67C243.625 67.5833 242.125 68.3333 240.625 69.25C239.125 70.1667 237.833 71.1667 236.75 72.25C235.667 73.3333 235.125 74.4167 235.125 75.5V76.375C235.708 76.125 236.708 75.7083 238.125 75.125C239.625 74.5417 241.125 73.8333 242.625 73C244.208 72.0833 245.583 71.0417 246.75 69.875C247.917 68.7083 248.5 67.4583 248.5 66.125ZM269 105.5C267.583 102.333 266.958 99.25 267.125 96.25C267.292 93.1667 267.958 90.2917 269.125 87.625C270.375 84.875 271.958 82.4167 273.875 80.25C275.875 78 278 76.0833 280.25 74.5C282.5 72.8333 284.75 71.5833 287 70.75C289.333 69.9167 291.375 69.5833 293.125 69.75C294.875 69.8333 296.25 70.4583 297.25 71.625C298.25 72.7917 298.583 74.5833 298.25 77C298.25 80.25 297.208 83.0833 295.125 85.5C293.125 87.9167 290.875 90.0833 288.375 92C285.958 93.9167 283.708 95.6667 281.625 97.25C279.625 98.75 278.625 100.167 278.625 101.5C278.625 102.25 279.042 102.833 279.875 103.25C280.792 103.667 281.833 104 283 104.25C284.167 104.417 285.333 104.542 286.5 104.625C287.667 104.708 288.5 104.792 289 104.875C296.833 103.208 302.708 102.208 306.625 101.875C310.542 101.458 313 101.5 314 102C315 102.417 314.792 103.125 313.375 104.125C312.042 105.042 309.958 106.042 307.125 107.125C304.292 108.125 301 109.042 297.25 109.875C293.5 110.708 289.792 111.208 286.125 111.375C282.458 111.458 279.042 111.083 275.875 110.25C272.792 109.417 270.5 107.833 269 105.5ZM290.875 77C289.208 77 287.625 77.4583 286.125 78.375C284.625 79.2917 283.25 80.4583 282 81.875C280.833 83.2083 279.833 84.7083 279 86.375C278.167 87.9583 277.542 89.4583 277.125 90.875C277.292 90.9583 277.417 91 277.5 91H277.875C279.042 91 280.375 90.5 281.875 89.5C283.375 88.5 284.792 87.2917 286.125 85.875C287.458 84.375 288.583 82.8333 289.5 81.25C290.417 79.6667 290.875 78.25 290.875 77ZM453.125 105C453.125 100.417 453.292 95.8333 453.625 91.25C453.958 86.5833 454.333 81.9583 454.75 77.375C455.25 72.7917 455.667 68.2083 456 63.625C456.333 58.9583 456.5 54.2917 456.5 49.625V40.75C456.333 40.9167 456.083 41.25 455.75 41.75C455.417 42.1667 455.042 42.625 454.625 43.125C454.292 43.625 453.958 44.125 453.625 44.625C453.375 45.0417 453.208 45.375 453.125 45.625C452.792 46.2083 452.125 47.4167 451.125 49.25C450.208 51 449.083 53.125 447.75 55.625C446.417 58.0417 445 60.625 443.5 63.375C442 66.125 440.583 68.75 439.25 71.25C437.917 73.6667 436.708 75.7917 435.625 77.625C434.625 79.375 433.958 80.5417 433.625 81.125C431.958 83.9583 430.167 87.0833 428.25 90.5C426.333 93.9167 424.167 97.125 421.75 100.125C419.417 103.125 416.75 105.625 413.75 107.625C410.75 109.625 407.333 110.625 403.5 110.625C399.583 110.625 396.083 109.792 393 108.125C390 106.375 387.417 104.125 385.25 101.375C383.083 98.5417 381.417 95.375 380.25 91.875C379.167 88.375 378.625 84.7917 378.625 81.125C378.625 80.7083 378.833 79.9167 379.25 78.75C379.667 77.5 380 76.7083 380.25 76.375C381.583 77.4583 382.75 78.8333 383.75 80.5C384.75 82.0833 385.667 83.7917 386.5 85.625C387.417 87.4583 388.292 89.2917 389.125 91.125C390.042 92.875 391.042 94.5 392.125 96C393.292 97.4167 394.625 98.5833 396.125 99.5C397.625 100.417 399.458 100.875 401.625 100.875C404.458 100.875 406.917 100.375 409 99.375C411.167 98.2917 413.125 96.9167 414.875 95.25C416.625 93.5 418.333 91.5833 420 89.5C421.667 87.3333 423.542 85.125 425.625 82.875C426.292 81.7083 427.292 79.9583 428.625 77.625C430.042 75.2917 431.625 72.625 433.375 69.625C435.125 66.625 436.917 63.5 438.75 60.25C440.667 56.9167 442.458 53.7917 444.125 50.875C445.792 47.875 447.292 45.2083 448.625 42.875C449.958 40.4583 450.958 38.6667 451.625 37.5C451.792 37.1667 452.167 36.2917 452.75 34.875C453.417 33.4583 454.083 31.9167 454.75 30.25C455.5 28.5833 456.167 27.0417 456.75 25.625C457.417 24.2083 457.833 23.2917 458 22.875C458.5 21.7917 459.292 21.25 460.375 21.25C461.875 21.25 462.917 22.0417 463.5 23.625C464.167 25.2083 464.583 27 464.75 29C464.917 31 464.917 32.875 464.75 34.625C464.667 36.375 464.625 37.4167 464.625 37.75C464.625 43.6667 464.333 49.5417 463.75 55.375C463.167 61.2083 462.875 67.125 462.875 73.125V83.75C463.458 82.4167 464.375 80.25 465.625 77.25C466.875 74.25 468.292 70.8333 469.875 67C471.458 63.1667 473.125 59.125 474.875 54.875C476.625 50.5417 478.292 46.4583 479.875 42.625C481.542 38.7917 483 35.4167 484.25 32.5C485.5 29.5 486.458 27.375 487.125 26.125C488.375 23.7083 489.917 21 491.75 18C493.583 14.9167 495.625 12.0417 497.875 9.375C500.208 6.70833 502.792 4.5 505.625 2.75C508.458 0.916667 511.5 0 514.75 0C510 3.16667 505.583 7.625 501.5 13.375C497.417 19.0417 493.667 25.4167 490.25 32.5C486.833 39.5 483.667 46.8333 480.75 54.5C477.917 62.1667 475.292 69.5 472.875 76.5C470.542 83.5 468.375 89.875 466.375 95.625C464.458 101.292 462.667 105.625 461 108.625C459.417 111.625 457.958 113 456.625 112.75C455.375 112.5 454.208 109.917 453.125 105ZM493.5 103.875C494.25 99.125 495.667 94.75 497.75 90.75C499.833 86.75 502.208 83.2917 504.875 80.375C507.625 77.375 510.583 74.9167 513.75 73C516.917 71.0833 520 69.875 523 69.375C526 68.7917 528.75 68.9167 531.25 69.75C533.833 70.5833 535.917 72.25 537.5 74.75C537.5 76.6667 537.042 78.5 536.125 80.25C535.292 82 534.333 83.75 533.25 85.5C532.25 87.25 531.292 89.0417 530.375 90.875C529.542 92.7083 529.125 94.6667 529.125 96.75C529.125 98.9167 529.583 100.667 530.5 102C531.5 103.25 533.208 103.875 535.625 103.875C537.625 103.875 539.542 103.583 541.375 103C543.292 102.417 545.208 102.125 547.125 102.125C547.458 102.125 548 102.167 548.75 102.25C549.583 102.25 550.125 102.25 550.375 102.25C549.375 103.667 548.083 104.875 546.5 105.875C544.917 106.875 543.25 107.75 541.5 108.5C539.75 109.167 537.917 109.667 536 110C534.167 110.333 532.458 110.5 530.875 110.5C529.375 110.5 528.042 110.167 526.875 109.5C525.708 108.833 524.708 107.958 523.875 106.875C523.042 105.792 522.375 104.583 521.875 103.25C521.458 101.833 521.25 100.458 521.25 99.125C520 100.542 518.625 102.042 517.125 103.625C515.708 105.125 514.167 106.5 512.5 107.75C510.917 109 509.167 110.042 507.25 110.875C505.417 111.708 503.5 112.125 501.5 112.125C499.333 112.125 497.458 111.333 495.875 109.75C494.292 108.083 493.5 106.125 493.5 103.875ZM501.75 100C501.75 100.667 501.75 101.417 501.75 102.25C501.833 103.083 502.375 103.625 503.375 103.875C505.458 103.375 507.833 102.292 510.5 100.625C513.167 98.875 515.667 96.875 518 94.625C520.333 92.2917 522.292 89.8333 523.875 87.25C525.458 84.5833 526.25 82.0417 526.25 79.625C526.25 79.4583 526.208 79.2083 526.125 78.875C526.125 78.4583 526.125 78.1667 526.125 78C523.292 78 520.417 78.5833 517.5 79.75C514.583 80.9167 511.958 82.5417 509.625 84.625C507.292 86.625 505.375 88.9583 503.875 91.625C502.458 94.2917 501.75 97.0833 501.75 100ZM525.25 178.375C525.25 173.625 526.083 169.375 527.75 165.625C529.333 161.875 531.458 158.375 534.125 155.125C536.792 151.958 539.833 149 543.25 146.25C546.667 143.583 550.167 140.958 553.75 138.375C557.333 135.875 560.833 133.333 564.25 130.75C567.667 128.167 570.708 125.417 573.375 122.5C576.042 119.583 578.167 116.417 579.75 113C581.417 109.583 582.25 105.792 582.25 101.625C582.25 101.458 582.25 101.083 582.25 100.5C582.25 99.8333 582.208 99.4167 582.125 99.25C581.542 99.75 580.417 100.5 578.75 101.5C577.083 102.417 575.292 103.417 573.375 104.5C571.542 105.5 569.75 106.417 568 107.25C566.25 108.083 565 108.625 564.25 108.875C564.167 108.875 563.833 108.917 563.25 109C562.75 109.083 562.125 109.167 561.375 109.25C560.708 109.333 560.042 109.417 559.375 109.5C558.708 109.5 558.167 109.5 557.75 109.5C554 108.833 551.5 107.542 550.25 105.625C549 103.625 548.667 101.292 549.25 98.625C549.833 95.9583 551.125 93.125 553.125 90.125C555.208 87.0417 557.667 84.125 560.5 81.375C563.417 78.5417 566.542 76.0417 569.875 73.875C573.292 71.625 576.583 70.0417 579.75 69.125C583 68.125 585.958 67.9167 588.625 68.5C591.375 69 593.5 70.625 595 73.375C595.5 76.875 595.5 80.1667 595 83.25C594.5 86.25 593.833 89.2083 593 92.125C592.167 95.0417 591.333 98 590.5 101C589.667 103.917 589.167 107.125 589 110.625H590.125C590.625 110.125 591.458 109.25 592.625 108C593.875 106.75 595.167 105.458 596.5 104.125C597.917 102.708 599.25 101.417 600.5 100.25C601.75 99 602.625 98.125 603.125 97.625C603.375 97.375 603.875 97.0417 604.625 96.625C605.458 96.2083 606.042 96 606.375 96V96.375V96.625C606.375 96.7083 606.417 96.75 606.5 96.75C606.5 99.75 605.625 102.5 603.875 105C602.208 107.5 600.167 109.833 597.75 112C595.333 114.167 592.833 116.167 590.25 118C587.667 119.917 585.5 121.75 583.75 123.5C582.333 126.417 580.792 130.042 579.125 134.375C577.458 138.792 575.625 143.458 573.625 148.375C571.625 153.375 569.375 158.417 566.875 163.5C564.458 168.667 561.708 173.417 558.625 177.75C555.625 182.083 552.292 185.792 548.625 188.875C544.958 192.042 540.875 194.083 536.375 195C534.208 195 532.417 194.458 531 193.375C529.5 192.292 528.333 190.917 527.5 189.25C526.667 187.667 526.083 185.875 525.75 183.875C525.417 181.958 525.25 180.125 525.25 178.375ZM531.875 185.125C532.542 186.708 533.333 187.667 534.25 188C535.167 188.333 536.208 188.5 537.375 188.5C539.542 188.5 541.917 187.375 544.5 185.125C547.083 182.875 549.667 179.958 552.25 176.375C554.917 172.875 557.458 168.958 559.875 164.625C562.292 160.292 564.417 156.083 566.25 152C568.167 147.917 569.667 144.167 570.75 140.75C571.917 137.417 572.5 134.917 572.5 133.25C572.5 133.083 572.458 132.792 572.375 132.375C572.375 132.042 572.375 131.792 572.375 131.625C572.125 131.792 571.542 132.042 570.625 132.375C569.792 132.792 569.292 133.083 569.125 133.25C565.625 135.833 561.667 138.667 557.25 141.75C552.917 144.917 548.875 148.375 545.125 152.125C541.292 155.875 538.083 159.917 535.5 164.25C532.917 168.667 531.625 173.417 531.625 178.5C531.625 178.75 531.625 179.208 531.625 179.875C531.625 180.542 531.667 181.208 531.75 181.875C531.75 182.542 531.792 183.167 531.875 183.75C531.875 184.417 531.875 184.875 531.875 185.125ZM587 74.875C585.667 74.875 583.917 75.3333 581.75 76.25C579.583 77.0833 577.25 78.25 574.75 79.75C572.333 81.25 569.875 82.9583 567.375 84.875C564.875 86.7917 562.583 88.7917 560.5 90.875C558.5 92.9583 556.875 95.0417 555.625 97.125C554.375 99.2083 553.75 101.125 553.75 102.875C555.5 102.875 557.625 102.542 560.125 101.875C562.625 101.125 565.208 100.167 567.875 99C570.625 97.75 573.333 96.3333 576 94.75C578.667 93.0833 581.042 91.3333 583.125 89.5C585.292 87.6667 587.042 85.7917 588.375 83.875C589.708 81.9583 590.375 80.0833 590.375 78.25C590.375 76 589.25 74.875 587 74.875ZM607.625 105.5C606.208 102.333 605.583 99.25 605.75 96.25C605.917 93.1667 606.583 90.2917 607.75 87.625C609 84.875 610.583 82.4167 612.5 80.25C614.5 78 616.625 76.0833 618.875 74.5C621.125 72.8333 623.375 71.5833 625.625 70.75C627.958 69.9167 630 69.5833 631.75 69.75C633.5 69.8333 634.875 70.4583 635.875 71.625C636.875 72.7917 637.208 74.5833 636.875 77C636.875 80.25 635.833 83.0833 633.75 85.5C631.75 87.9167 629.5 90.0833 627 92C624.583 93.9167 622.333 95.6667 620.25 97.25C618.25 98.75 617.25 100.167 617.25 101.5C617.25 102.25 617.667 102.833 618.5 103.25C619.417 103.667 620.458 104 621.625 104.25C622.792 104.417 623.958 104.542 625.125 104.625C626.292 104.708 627.125 104.792 627.625 104.875C635.458 103.208 641.333 102.208 645.25 101.875C649.167 101.458 651.625 101.5 652.625 102C653.625 102.417 653.417 103.125 652 104.125C650.667 105.042 648.583 106.042 645.75 107.125C642.917 108.125 639.625 109.042 635.875 109.875C632.125 110.708 628.417 111.208 624.75 111.375C621.083 111.458 617.667 111.083 614.5 110.25C611.417 109.417 609.125 107.833 607.625 105.5ZM629.5 77C627.833 77 626.25 77.4583 624.75 78.375C623.25 79.2917 621.875 80.4583 620.625 81.875C619.458 83.2083 618.458 84.7083 617.625 86.375C616.792 87.9583 616.167 89.4583 615.75 90.875C615.917 90.9583 616.042 91 616.125 91H616.5C617.667 91 619 90.5 620.5 89.5C622 88.5 623.417 87.2917 624.75 85.875C626.083 84.375 627.208 82.8333 628.125 81.25C629.042 79.6667 629.5 78.25 629.5 77ZM651.25 100.625C651.25 100.042 651.292 99.1667 651.375 98C651.542 96.75 651.708 95.5417 651.875 94.375C652.042 93.2083 652.208 92.1667 652.375 91.25C652.542 90.25 652.708 89.625 652.875 89.375L675.625 43.875C675.958 43.2083 676.583 42.2917 677.5 41.125C678.5 39.875 679.542 38.625 680.625 37.375C681.792 36.0417 682.917 34.8333 684 33.75C685.167 32.5833 686.125 31.6667 686.875 31C687.458 31.1667 687.875 31.4583 688.125 31.875C688.375 32.2917 688.542 32.7917 688.625 33.375C688.708 33.875 688.708 34.375 688.625 34.875C688.625 35.375 688.625 35.7917 688.625 36.125C688.625 36.5417 688.625 37.125 688.625 37.875C688.625 38.625 688.583 39 688.5 39C687.667 41.25 686.375 43.9167 684.625 47C682.875 50.0833 680.917 53.375 678.75 56.875C676.583 60.375 674.333 64.0417 672 67.875C669.75 71.625 667.667 75.375 665.75 79.125C663.917 82.7917 662.375 86.3333 661.125 89.75C659.958 93.1667 659.375 96.2917 659.375 99.125C659.375 100.625 659.792 101.833 660.625 102.75C661.542 103.583 662.5 104.333 663.5 105C664.5 105.667 665.417 106.333 666.25 107C667.167 107.667 667.625 108.583 667.625 109.75C667.625 110.5 667.292 111.083 666.625 111.5C665.958 111.833 665.167 112 664.25 112C660.75 112 657.708 111.042 655.125 109.125C652.542 107.125 651.25 104.292 651.25 100.625ZM685.875 98.125C685.875 96.5417 686.083 95.1667 686.5 94C687 92.8333 688.208 92.25 690.125 92.25C690.292 92.25 690.667 92.2917 691.25 92.375C691.917 92.375 692.375 92.4167 692.625 92.5C692.542 96.4167 693.167 99.375 694.5 101.375C695.833 103.292 698.333 104.25 702 104.25C705 104.25 707.958 103.792 710.875 102.875C713.792 101.958 716.417 100.625 718.75 98.875C721.167 97.0417 723.083 94.8333 724.5 92.25C726 89.6667 726.75 86.75 726.75 83.5C726.75 81.5 726.042 80.0833 724.625 79.25C723.292 78.4167 721.792 77.75 720.125 77.25C718.458 76.75 716.917 76.2083 715.5 75.625C714.167 74.9583 713.5 73.8333 713.5 72.25C713.5 70.3333 714.667 68.5 717 66.75C719.333 65 722.083 63.4583 725.25 62.125C728.417 60.7083 731.542 59.625 734.625 58.875C737.792 58.0417 740.208 57.625 741.875 57.625C741.875 60.0417 741.333 61.75 740.25 62.75C739.25 63.75 738 64.5417 736.5 65.125C735 65.7083 733.458 66.2917 731.875 66.875C730.375 67.375 729.125 68.375 728.125 69.875C729.458 70.9583 730.542 71.9583 731.375 72.875C732.292 73.7083 733 74.625 733.5 75.625C734 76.625 734.333 77.75 734.5 79C734.667 80.1667 734.75 81.5833 734.75 83.25C734.75 87.5833 733.792 91.5417 731.875 95.125C730.042 98.625 727.625 101.667 724.625 104.25C721.625 106.75 718.208 108.708 714.375 110.125C710.542 111.458 706.625 112.125 702.625 112.125C700.458 112.125 698.333 111.875 696.25 111.375C694.25 110.792 692.458 109.917 690.875 108.75C689.375 107.583 688.167 106.125 687.25 104.375C686.333 102.625 685.875 100.542 685.875 98.125ZM777.875 66.75C775.958 67 773.75 68.2083 771.25 70.375C768.75 72.4583 766.333 75.0417 764 78.125C761.75 81.125 759.833 84.4167 758.25 88C756.667 91.5 755.875 94.75 755.875 97.75C755.875 100.167 756.5 101.875 757.75 102.875C759 103.792 760.792 104.25 763.125 104.25C765.625 104.25 768.042 103.958 770.375 103.375C772.792 102.708 775.167 102.042 777.5 101.375C779.917 100.625 782.292 99.9583 784.625 99.375C787.042 98.7083 789.5 98.375 792 98.375C792 99.5417 791.833 100.542 791.5 101.375C791.167 102.125 790.667 102.958 790 103.875C785.667 105.958 781.208 107.875 776.625 109.625C772.042 111.292 767.25 112.125 762.25 112.125C760.75 112.125 759.167 111.875 757.5 111.375C755.833 110.792 754.292 110 752.875 109C751.458 108 750.25 106.792 749.25 105.375C748.333 103.958 747.875 102.375 747.875 100.625C747.875 96.875 748.417 93.25 749.5 89.75C750.583 86.1667 752.083 82.7917 754 79.625C755.917 76.4583 758.208 73.5417 760.875 70.875C763.625 68.2083 766.583 65.875 769.75 63.875V63.75C771 63 772.417 62.2917 774 61.625C775.667 60.875 777.208 60.4583 778.625 60.375C780.042 60.2083 781.208 60.5417 782.125 61.375C783.125 62.125 783.625 63.5833 783.625 65.75C783.625 66.75 783.542 68.0833 783.375 69.75C783.208 71.3333 782.75 72.4583 782 73.125C781.333 73.5417 780.458 73.9167 779.375 74.25C778.875 74.4167 778.375 74.5417 777.875 74.625V66.75ZM836 112.125C833.917 112.458 832 112.125 830.25 111.125C828.583 110.042 827.25 108.667 826.25 107C825.25 105.25 824.667 103.375 824.5 101.375C824.333 99.2917 824.75 97.4167 825.75 95.75C829.417 91 831.917 87.25 833.25 84.5C834.583 81.6667 835.042 79.7083 834.625 78.625C834.292 77.4583 833.25 77 831.5 77.25C829.833 77.4167 827.792 78.1667 825.375 79.5C822.958 80.75 820.333 82.4167 817.5 84.5C814.75 86.5833 812.167 88.875 809.75 91.375C807.333 93.875 805.208 96.5 803.375 99.25C801.625 101.917 800.5 104.542 800 107.125C799.167 107.625 798.458 108.042 797.875 108.375C797.292 108.625 796.625 108.75 795.875 108.75C794.625 108.75 793.875 108.333 793.625 107.5C793.375 106.667 793.25 105.792 793.25 104.875C793.25 102.792 793.875 100.667 795.125 98.5C796.458 96.25 797.958 94.1667 799.625 92.25C801.375 90.25 803.042 88.4583 804.625 86.875C806.208 85.2083 807.333 83.875 808 82.875C810.083 79.4583 812.167 75.7917 814.25 71.875C816.333 67.875 818.417 63.8333 820.5 59.75C822.583 55.5833 824.708 51.5 826.875 47.5C829.125 43.4167 831.458 39.5417 833.875 35.875C834.292 35.2083 834.625 34.75 834.875 34.5C835.208 34.25 835.667 34.125 836.25 34.125C836.917 34.125 837.417 34.25 837.75 34.5C838.083 34.75 838.417 35.2083 838.75 35.875C838.75 36.2083 838.667 36.75 838.5 37.5C838.417 38.25 838.292 39.0833 838.125 40C838.042 40.8333 837.875 41.625 837.625 42.375C837.458 43.125 837.333 43.625 837.25 43.875C836.75 44.875 835.917 46.625 834.75 49.125C833.583 51.625 832.292 54.2917 830.875 57.125C829.542 59.9583 828.25 62.75 827 65.5C825.75 68.1667 824.833 70.1667 824.25 71.5C825.5 70.6667 826.625 70.0417 827.625 69.625C828.625 69.125 829.583 68.7917 830.5 68.625C831.5 68.375 832.5 68.25 833.5 68.25C834.583 68.1667 835.75 68.125 837 68.125C840 68.875 841.958 70 842.875 71.5C843.875 73 844.167 74.75 843.75 76.75C843.417 78.6667 842.625 80.7917 841.375 83.125C840.125 85.4583 838.792 87.8333 837.375 90.25C836.042 92.5833 834.833 94.875 833.75 97.125C832.667 99.2917 832.167 101.292 832.25 103.125C832.25 103.875 832.417 104.417 832.75 104.75C833.083 105.083 833.5 105.333 834 105.5C834.5 105.667 835.042 105.75 835.625 105.75C836.208 105.75 836.75 105.75 837.25 105.75C839 105.75 840.667 105.5 842.25 105C843.917 104.417 845.542 103.792 847.125 103.125C848.708 102.458 850.292 101.875 851.875 101.375C853.542 100.792 855.25 100.5 857 100.5C857 102.083 856.208 103.583 854.625 105C853.042 106.417 851.125 107.667 848.875 108.75C846.708 109.75 844.417 110.583 842 111.25C839.583 111.833 837.583 112.125 836 112.125ZM914.5 112.125C912.917 112.125 911.458 111.833 910.125 111.25C908.875 110.667 907.833 109.833 907 108.75C906.167 107.667 905.583 106.458 905.25 105.125C904.917 103.708 904.958 102.208 905.375 100.625C905.375 97.9583 905.833 95.5 906.75 93.25C907.75 90.9167 908.833 88.7083 910 86.625C911.25 84.4583 912.333 82.3333 913.25 80.25C914.25 78.0833 914.75 75.7917 914.75 73.375C912.917 73.375 910.958 73.9583 908.875 75.125C906.792 76.2917 904.667 77.8333 902.5 79.75C900.417 81.6667 898.333 83.8333 896.25 86.25C894.25 88.5833 892.333 90.9583 890.5 93.375C888.75 95.7083 887.208 97.9583 885.875 100.125C884.625 102.292 883.667 104.083 883 105.5C882.833 105.583 882.417 105.667 881.75 105.75C881.083 105.75 880.667 105.75 880.5 105.75C879.167 106.417 878.333 106.417 878 105.75C877.75 105 877.75 103.875 878 102.375C878.333 100.875 878.833 99.2083 879.5 97.375C880.167 95.4583 880.792 93.6667 881.375 92C882.042 90.25 882.542 88.8333 882.875 87.75C883.208 86.5833 883.25 86 883 86C883.25 85.6667 883.542 85.125 883.875 84.375C884.208 83.625 884.542 82.8333 884.875 82C885.208 81.1667 885.5 80.4167 885.75 79.75C886 79 886.125 78.4167 886.125 78C886.125 77.25 885.833 76.7917 885.25 76.625C884.75 76.375 884.25 76.25 883.75 76.25C882.25 75.4167 880.625 75.9167 878.875 77.75C877.208 79.5 875.375 82.0417 873.375 85.375C871.458 88.625 869.333 92.375 867 96.625C864.75 100.792 862.25 104.833 859.5 108.75C857.583 108.75 856.125 108.5 855.125 108C854.125 107.5 853.625 106.25 853.625 104.25C854.292 103.333 855.292 101.625 856.625 99.125C857.958 96.5417 859.458 93.7083 861.125 90.625C862.792 87.5417 864.542 84.4167 866.375 81.25C868.292 78.0833 870.083 75.4167 871.75 73.25C873.5 71 875.042 69.5 876.375 68.75C877.792 67.9167 878.917 68.2917 879.75 69.875C881.167 68.9583 882.708 68.1667 884.375 67.5C886.125 66.8333 887.875 66.5 889.625 66.5C890.792 66.5 891.75 66.875 892.5 67.625C893.333 68.2917 893.958 69.1667 894.375 70.25C894.875 71.25 895.25 72.3333 895.5 73.5C895.75 74.5833 895.875 75.5417 895.875 76.375C896.792 75.7917 898.292 74.7917 900.375 73.375C902.542 71.875 904.833 70.375 907.25 68.875C909.75 67.375 912.167 66.0833 914.5 65C916.917 63.8333 918.875 63.25 920.375 63.25C921.708 63.25 922.833 63.75 923.75 64.75C924.75 65.6667 925.25 66.8333 925.25 68.25C922.25 75.5833 919.875 81.4583 918.125 85.875C916.458 90.2917 915.333 93.75 914.75 96.25C914.25 98.6667 914.25 100.417 914.75 101.5C915.333 102.5 916.333 103.292 917.75 103.875C920 103.875 922.167 103.5 924.25 102.75C926.333 102 928.375 101.167 930.375 100.25C932.458 99.3333 934.542 98.5 936.625 97.75C938.708 97 940.917 96.625 943.25 96.625C943.25 97.5417 943 98.4167 942.5 99.25C942.083 100 941.417 100.583 940.5 101C939.833 101.417 938.625 102.083 936.875 103C935.208 103.833 933.375 104.75 931.375 105.75C929.375 106.667 927.458 107.583 925.625 108.5C923.875 109.417 922.625 110.042 921.875 110.375C920.208 111.125 918.917 111.625 918 111.875C917.167 112.042 916 112.125 914.5 112.125ZM940.875 103.875C940.875 102.708 941 101.708 941.25 100.875C941.5 99.9583 941.958 98.7917 942.625 97.375C943.208 96.5417 944.25 94.9583 945.75 92.625C947.333 90.2917 948.958 87.8333 950.625 85.25C952.375 82.6667 954 80.25 955.5 78C957.083 75.6667 958.167 74.0417 958.75 73.125C959.5 72.0417 960.083 71.4583 960.5 71.375C960.917 71.2917 961.708 71.25 962.875 71.25C963.625 71.25 964.417 71.2917 965.25 71.375C966.167 71.4583 966.75 72.0417 967 73.125C965.833 75.9583 964.25 78.6667 962.25 81.25C960.333 83.75 958.417 86.25 956.5 88.75C954.667 91.25 953.042 93.8333 951.625 96.5C950.208 99.0833 949.5 101.875 949.5 104.875C949.833 104.875 950.333 104.917 951 105C951.75 105.083 952.542 105.167 953.375 105.25C954.208 105.333 954.958 105.417 955.625 105.5C956.375 105.583 956.917 105.583 957.25 105.5C957.75 105.417 958.583 105.25 959.75 105C961 104.667 962.292 104.333 963.625 104C965.042 103.667 966.375 103.333 967.625 103C968.875 102.667 969.75 102.417 970.25 102.25C970.25 102.417 970.25 102.708 970.25 103.125C970.333 103.458 970.375 103.708 970.375 103.875C970.375 105.542 969.583 106.917 968 108C966.5 109.083 964.708 109.958 962.625 110.625C960.625 111.208 958.542 111.625 956.375 111.875C954.292 112.042 952.667 112.125 951.5 112.125C950.25 112.125 948.958 112 947.625 111.75C946.375 111.417 945.25 110.917 944.25 110.25C943.25 109.583 942.417 108.75 941.75 107.75C941.167 106.667 940.875 105.375 940.875 103.875ZM977.25 30.625C978.333 30.625 979.333 30.6667 980.25 30.75C981.167 30.8333 981.958 31.0417 982.625 31.375C983.292 31.7083 983.833 32.2083 984.25 32.875C984.667 33.5417 984.875 34.4583 984.875 35.625C984.875 36.125 984.875 36.6667 984.875 37.25C984.875 37.8333 984.792 38.4167 984.625 39C984.542 39.5 984.333 39.9583 984 40.375C983.667 40.7083 983.125 40.875 982.375 40.875C981.208 40.875 980.25 40.4583 979.5 39.625C978.833 38.7917 978.333 37.8333 978 36.75C977.667 35.5833 977.458 34.4167 977.375 33.25C977.292 32.0833 977.25 31.2083 977.25 30.625ZM973.375 99.625C973.375 95.4583 974.542 91.375 976.875 87.375C979.292 83.375 982.333 79.8333 986 76.75C989.667 73.6667 993.708 71.2083 998.125 69.375C1002.54 67.4583 1006.75 66.5 1010.75 66.5C1012.33 66.5 1013.83 66.7917 1015.25 67.375C1016.67 67.9583 1018.17 68.25 1019.75 68.25H1020.5C1020.92 67.3333 1021.71 65.7083 1022.88 63.375C1024.12 61.0417 1025.42 58.5833 1026.75 56C1028.17 53.4167 1029.5 51 1030.75 48.75C1032 46.4167 1032.92 44.7917 1033.5 43.875C1034.42 42.2917 1035.67 40.3333 1037.25 38C1038.83 35.5833 1040.38 33.25 1041.88 31C1043.46 28.75 1044.83 26.8333 1046 25.25C1047.17 23.6667 1047.83 22.875 1048 22.875L1052.88 27.75C1052.88 27.9167 1052.54 28.6667 1051.88 30C1051.29 31.3333 1050.5 33.0833 1049.5 35.25C1048.5 37.3333 1047.33 39.6667 1046 42.25C1044.75 44.8333 1043.46 47.4167 1042.12 50C1040.79 52.5833 1039.5 55.0833 1038.25 57.5C1037.08 59.8333 1036.04 61.7917 1035.12 63.375C1032.54 67.2917 1029.92 71.2917 1027.25 75.375C1024.67 79.375 1022.58 83.125 1021 86.625C1019.5 90.0417 1018.75 93.0417 1018.75 95.625C1018.83 98.2083 1020.25 100 1023 101C1028 100.083 1031.75 99.7083 1034.25 99.875C1036.75 100.042 1038.29 100.5 1038.88 101.25C1039.54 101.917 1039.46 102.75 1038.62 103.75C1037.79 104.667 1036.46 105.5 1034.62 106.25C1032.88 107 1030.83 107.5 1028.5 107.75C1026.17 108 1023.83 107.75 1021.5 107C1019.17 106.25 1017.04 104.875 1015.12 102.875C1013.21 100.875 1011.75 98 1010.75 94.25L991.375 110.375C991.375 110.375 991.042 110.458 990.375 110.625C989.792 110.792 989.042 110.958 988.125 111.125C987.292 111.292 986.417 111.458 985.5 111.625C984.583 111.792 983.833 111.917 983.25 112H982.5C980.583 112 979 111.667 977.75 111C976.583 110.25 975.667 109.333 975 108.25C974.333 107.083 973.875 105.75 973.625 104.25C973.458 102.75 973.375 101.208 973.375 99.625ZM981.5 98.25C981.5 98.75 981.458 99.3333 981.375 100C981.375 100.667 981.417 101.292 981.5 101.875C981.667 102.375 981.917 102.833 982.25 103.25C982.667 103.667 983.25 103.875 984 103.875C985.083 103.875 986.375 103.5 987.875 102.75C989.458 101.917 991 100.958 992.5 99.875C994 98.7917 995.375 97.7083 996.625 96.625C997.958 95.5417 998.917 94.75 999.5 94.25C1000.08 93.6667 1001.17 92.625 1002.75 91.125C1004.33 89.5417 1005.96 87.875 1007.62 86.125C1009.38 84.375 1011 82.75 1012.5 81.25C1014 79.75 1015.04 78.6667 1015.62 78V77.625C1015.62 77.4583 1015.62 77.375 1015.62 77.375C1015.71 77.2917 1015.75 77.2083 1015.75 77.125C1015.75 76.375 1015.5 75.8333 1015 75.5C1014.58 75.0833 1014.04 74.8333 1013.38 74.75C1012.79 74.5833 1012.17 74.5417 1011.5 74.625C1010.83 74.625 1010.29 74.625 1009.88 74.625C1006.88 74.625 1003.71 75.25 1000.38 76.5C997.042 77.75 993.958 79.4583 991.125 81.625C988.375 83.7083 986.083 86.2083 984.25 89.125C982.417 91.9583 981.5 95 981.5 98.25ZM1039.62 99.875C1039.62 97.4583 1040.08 95.0417 1041 92.625C1041.92 90.2083 1043 87.8333 1044.25 85.5C1045.5 83.0833 1046.75 80.7083 1048 78.375C1049.33 76.0417 1050.33 73.75 1051 71.5C1049.42 72.4167 1048.04 72.9583 1046.88 73.125C1045.79 73.2083 1044.46 73.25 1042.88 73.25C1042.71 73.25 1042.17 73.25 1041.25 73.25C1040.42 73.1667 1039.88 73.125 1039.62 73.125C1040.12 71.2917 1041.04 69.6667 1042.38 68.25C1043.71 66.75 1045.21 65.5 1046.88 64.5C1048.62 63.4167 1050.42 62.5417 1052.25 61.875C1054.17 61.125 1055.88 60.5417 1057.38 60.125C1059.88 56.2083 1061.92 52.2917 1063.5 48.375C1065.08 44.375 1066.67 40.5 1068.25 36.75C1069.92 32.9167 1071.83 29.2917 1074 25.875C1076.25 22.375 1079.25 19.1667 1083 16.25L1083.62 21L1068 57.625C1068.92 57.375 1070.04 57.125 1071.38 56.875C1072.71 56.625 1074.04 56.375 1075.38 56.125C1076.79 55.875 1078.12 55.6667 1079.38 55.5C1080.71 55.25 1081.83 55 1082.75 54.75C1082.83 54.75 1083.08 54.75 1083.5 54.75C1083.92 54.6667 1084.25 54.625 1084.5 54.625C1085.67 54.625 1086.62 54.8333 1087.38 55.25C1088.12 55.6667 1088.75 56.5833 1089.25 58C1083.58 59.6667 1078.46 61.4167 1073.88 63.25C1069.29 65.0833 1065.29 67.5 1061.88 70.5C1058.54 73.4167 1055.79 77.1667 1053.62 81.75C1051.54 86.25 1050.08 92.0417 1049.25 99.125C1049.25 100.625 1049.33 102 1049.5 103.25C1049.67 104.5 1050.71 105.25 1052.62 105.5C1054.54 105.5 1056.33 105.125 1058 104.375C1059.67 103.625 1061.29 102.833 1062.88 102C1064.46 101.083 1066.04 100.25 1067.62 99.5C1069.29 98.75 1071.08 98.375 1073 98.375C1073 100.375 1072.12 102.208 1070.38 103.875C1068.62 105.542 1066.5 107 1064 108.25C1061.58 109.5 1059.08 110.458 1056.5 111.125C1053.92 111.792 1051.79 112.125 1050.12 112.125C1048.46 112.125 1046.96 111.792 1045.62 111.125C1044.29 110.458 1043.17 109.583 1042.25 108.5C1041.42 107.333 1040.75 106 1040.25 104.5C1039.83 103 1039.62 101.458 1039.62 99.875Z" fill="white"/>
</svg>
